<svg width="1191" height="1065" xmlns="http://www.w3.org/2000/svg" xmlns:xlink="http://www.w3.org/1999/xlink" xmlns:svgjs="http://svgjs.com/svgjs" viewBox="0.405 0 1190.195 1065.005" fill="#80b7b3"><svg xmlns="http://www.w3.org/2000/svg" width="1191" height="1065" viewBox="1.808 1.307 1188.38 1063.38"><path paint-order="stroke fill markers" fill-rule="evenodd" d="M189.636 1004.692l-2.828-2.828L1187.364 1.308l2.828 2.828L189.636 1004.692M678.247 492.04c5.858-5.858 15.355-5.858 21.213 0 5.858 5.858 5.858 15.355 0 21.213-5.858 5.858-15.355 5.858-21.213 0-5.858-5.858-5.858-15.355 0-21.213zM4.637 1064.692l-2.83-2.828L1002.365 61.308l2.828 2.828L4.636 1064.692M780.247 263.04c5.858-5.858 15.355-5.858 21.213 0 5.858 5.858 5.858 15.355 0 21.213-5.858 5.858-15.355 5.858-21.213 0-5.858-5.858-5.858-15.355 0-21.213z"/></svg></svg>